<svg width="28" height="30" viewBox="0 0 28 30" fill="none" xmlns="http://www.w3.org/2000/svg">
<g clip-path="url(#clip0_0_107)" filter="url(#filter0_d_0_107)">
<path d="M14.6874 6.79212C14.9675 6.33698 15.2563 5.94311 15.6327 5.61926C16.4992 4.87527 17.497 4.53392 18.6349 4.57768C18.7662 4.58643 18.8449 4.56017 18.9149 4.43764C19.3263 3.73742 19.9128 3.24726 20.6655 2.94967C20.788 2.89716 20.8581 2.82713 20.9193 2.7046C21.1294 2.26696 21.5933 2.03939 22.0834 2.11816C22.5211 2.18818 22.8974 2.59956 22.9412 3.02845C22.9937 3.55361 22.7399 3.98249 22.2847 4.17505C21.8471 4.35886 21.3307 4.23632 21.0506 3.84245C20.9281 3.67615 20.8318 3.6849 20.6742 3.77243C20.2979 3.98249 19.974 4.24508 19.7202 4.59519C19.6414 4.70022 19.6327 4.76149 19.7815 4.814C20.8493 5.19037 21.6458 5.88184 22.1622 6.8884C22.241 7.0372 22.4073 7.09847 22.4948 7.22976C22.7136 7.57987 22.9937 7.81619 23.3788 8.00875C23.9215 8.27133 24.1316 8.95405 23.9653 9.54048C23.7902 10.1357 23.2738 10.5383 22.6524 10.547C21.8471 10.547 21.0506 10.5558 20.2454 10.547C20.0703 10.547 20.0265 10.5908 20.0441 10.7746C20.0966 11.5974 20.0703 12.4201 20.009 13.2429C19.8953 14.6521 19.5276 16.0088 19.1775 17.3742C19.1338 17.5492 19.1163 17.7155 19.1163 17.8906C19.1163 18.7834 19.1163 19.6849 19.1163 20.5777C19.1163 20.9365 19.0025 21.0503 18.6436 21.0503C16.1403 21.0503 13.637 21.0503 11.1425 21.0503C10.8012 21.0503 10.6874 20.9365 10.6874 20.5864C10.6874 20.2188 10.6786 19.8424 10.6874 19.4748C10.6874 19.3173 10.6349 19.2648 10.4773 19.2473C9.67206 19.1685 8.86681 19.0722 8.07031 18.9847C7.61517 18.9322 7.53639 18.8446 7.53639 18.3895C7.53639 16.9103 7.53639 15.4311 7.53639 13.9519C7.53639 13.7856 7.49263 13.6718 7.36134 13.558C7.00247 13.2516 6.66112 12.9365 6.31976 12.6214C6.08344 12.4026 6.06593 12.2538 6.24974 11.9912C6.70488 11.3523 7.15127 10.6958 7.62392 10.0744C7.84274 9.78556 7.93026 9.47921 7.97403 9.1291C8.0528 8.43764 8.07906 8.42013 8.76177 8.42013C10.4861 8.42013 12.2191 8.41138 13.9434 8.42888C14.171 8.42888 14.2497 8.35011 14.2672 8.14004C14.311 7.75492 14.3198 7.75492 13.9784 7.57112C13.7858 7.46608 13.5933 7.3698 13.4007 7.25602C13.2957 7.19475 13.2169 7.2035 13.1206 7.25602C12.8668 7.40481 12.613 7.5361 12.3591 7.67615C12.2016 7.76368 12.0353 7.78993 11.8865 7.67615C11.7377 7.56236 11.7202 7.40481 11.7552 7.22101C11.8165 6.94092 11.8515 6.66083 11.9128 6.38074C11.939 6.25821 11.904 6.17068 11.8165 6.0919C11.6064 5.89934 11.4051 5.70678 11.195 5.51422C11.0637 5.39168 10.985 5.24289 11.0375 5.06783C11.09 4.88403 11.2476 4.7965 11.4226 4.7965C11.6677 4.7965 11.7377 4.69147 11.7202 4.46389C11.7027 4.11379 11.7114 3.76368 11.7202 3.41357C11.7202 3.27352 11.6852 3.19475 11.5364 3.14223C10.9237 2.92341 10.6086 2.41575 10.6786 1.78556C10.7399 1.23414 11.1688 0.814004 11.7902 0.717724C11.8865 0.700219 11.939 0.647702 12.0003 0.577681C12.6305 -0.19256 13.6546 -0.19256 14.2847 0.577681C14.3548 0.665208 14.4248 0.708972 14.5386 0.717724C15.0637 0.778993 15.4839 1.17287 15.5977 1.68928C15.7114 2.18818 15.4926 2.73085 15.0462 2.99344C14.8624 3.09847 14.8187 3.22101 14.8274 3.41357C14.8362 3.76368 14.8449 4.11379 14.8274 4.46389C14.8187 4.68271 14.8799 4.7965 15.1163 4.78775C15.2213 4.78775 15.3176 4.82276 15.3963 4.89278C15.5714 5.05033 15.5714 5.2779 15.3876 5.47046C15.2125 5.64551 15.0375 5.82057 14.8449 5.97812C14.6524 6.13567 14.5823 6.31072 14.6611 6.54705C14.6524 6.61707 14.6611 6.67834 14.6874 6.79212ZM13.5233 9.14661C12.0003 9.14661 10.4773 9.14661 8.95433 9.14661C8.76177 9.14661 8.67425 9.19912 8.66549 9.40044C8.64799 9.78556 8.50794 10.1094 8.27162 10.4158C7.86024 10.9497 7.48387 11.5186 7.08125 12.07C6.99372 12.1838 6.98497 12.2538 7.10751 12.3589C7.42261 12.6214 7.71145 12.9015 8.02654 13.1729C8.17534 13.3042 8.24536 13.453 8.23661 13.6455C8.22786 13.9694 8.23661 14.302 8.23661 14.6258C8.23661 14.7046 8.23661 14.8009 8.3504 14.8009C8.8318 14.8096 9.3132 14.8621 9.71582 14.4858C9.89963 14.3107 10.136 14.3282 10.2847 14.4945C10.4335 14.6608 10.4073 14.8709 10.206 15.0547C9.86462 15.3523 9.4795 15.5361 9.0156 15.5361C8.81429 15.5361 8.60422 15.5361 8.40291 15.5361C8.29788 15.5361 8.24536 15.5799 8.24536 15.6937C8.24536 16.4989 8.24536 17.2954 8.24536 18.1007C8.24536 18.2057 8.28913 18.2582 8.40291 18.267C8.683 18.2932 8.97184 18.3282 9.25193 18.3545C9.82085 18.4158 10.381 18.477 10.9412 18.5383C11.3088 18.5821 11.3963 18.6958 11.3963 19.0722C11.3963 19.3961 11.4051 19.7112 11.3963 20.035C11.3876 20.2538 11.4489 20.3239 11.6764 20.3239C13.1556 20.3151 14.6349 20.3151 16.1141 20.3151C16.788 20.3151 17.4532 20.3063 18.1272 20.3151C18.3198 20.3151 18.381 20.2538 18.3723 20.0613C18.3635 19.6236 18.3898 19.186 18.3635 18.7484C18.3198 17.8731 18.4335 17.0241 18.6786 16.1838C19.1863 14.4245 19.3613 12.6214 19.2913 10.8009C19.2826 10.5996 19.2388 10.4508 19.0375 10.3457C18.6611 10.1444 18.4335 9.80306 18.3898 9.38293C18.3635 9.15536 18.2672 9.13786 18.0834 9.13786C16.5517 9.15536 15.0375 9.14661 13.5233 9.14661ZM21.1819 9.82057C21.602 9.82057 22.0309 9.82057 22.4511 9.82057C22.5736 9.82057 22.6961 9.81182 22.8187 9.76805C23.1075 9.67177 23.2651 9.40044 23.23 9.07659C23.2038 8.7965 22.9762 8.55142 22.6874 8.53392C22.3898 8.51641 22.2322 8.39387 22.1447 8.10503C22.0134 7.6849 21.6195 7.40481 21.1907 7.40481C20.7618 7.39606 20.3504 7.6849 20.2191 8.11378C20.1316 8.39387 19.9828 8.51641 19.6939 8.53392C19.3788 8.55142 19.1513 8.814 19.1338 9.1291C19.1163 9.53173 19.3876 9.81182 19.834 9.81182C20.2804 9.82057 20.7268 9.82057 21.1819 9.82057ZM21.0681 6.65208C21.0594 6.5558 20.9893 6.50328 20.9368 6.44201C20.0178 5.49672 18.8974 5.13786 17.6108 5.4267C16.2454 5.73304 15.23 6.82713 14.9937 8.20131C14.985 8.27133 14.95 8.36761 15.0287 8.39387C15.1863 8.44639 15.3613 8.43764 15.5276 8.40263C15.6502 8.37637 15.6239 8.23632 15.6502 8.14004C16.1053 6.23195 18.311 5.33042 19.9303 6.42451C20.2891 6.66958 20.5955 6.84464 21.0156 6.66083C21.0244 6.66083 21.0419 6.66083 21.0681 6.65208ZM13.1031 2.46827C13.4883 2.46827 13.8734 2.47702 14.2585 2.46827C14.4948 2.46827 14.7049 2.3895 14.8012 2.14442C14.9412 1.78556 14.6961 1.46171 14.2585 1.46171C13.9959 1.46171 13.8384 1.37418 13.7071 1.1291C13.4532 0.63895 12.7968 0.630197 12.5342 1.1116C12.3942 1.36543 12.2279 1.46171 11.9478 1.45295C11.7202 1.4442 11.5189 1.54048 11.4314 1.77681C11.3001 2.13567 11.5364 2.44201 11.9653 2.45952C12.3416 2.47702 12.7268 2.46827 13.1031 2.46827ZM19.7902 7.30853C19.7727 7.21225 19.7027 7.17724 19.6502 7.13348C18.5998 6.32823 17.0681 6.71335 16.5079 7.92123C16.2891 8.40263 16.3154 8.43764 16.8405 8.42013C16.9456 8.42013 17.0156 8.40263 17.0594 8.28884C17.4182 7.30853 18.6436 7.08972 19.3351 7.71991C19.3788 7.75492 19.4401 7.82495 19.4839 7.77243C19.6064 7.62363 19.6939 7.45733 19.7902 7.30853ZM12.6392 6.61707C12.6742 6.63457 12.7093 6.61707 12.7355 6.59956C13.0506 6.36324 13.3745 6.29322 13.7071 6.5733C13.7421 6.59956 13.7946 6.62582 13.8296 6.59081C13.8821 6.54705 13.8646 6.47702 13.8384 6.42451C13.7158 6.0919 13.8209 5.82932 14.0922 5.62801C14.1447 5.593 14.2235 5.54923 14.1972 5.47921C14.171 5.40044 14.0834 5.4267 14.0222 5.4267C13.6983 5.41794 13.462 5.2954 13.357 4.9628C13.3307 4.89278 13.3132 4.80525 13.2257 4.76149C13.2082 4.78775 13.1732 4.814 13.1644 4.84902C13.0506 5.24289 12.7968 5.4442 12.3854 5.4267C12.3504 5.4267 12.3066 5.4267 12.2891 5.47046C12.2716 5.53173 12.3154 5.56674 12.3591 5.593C12.7093 5.82932 12.7443 6.14442 12.6305 6.51203C12.6305 6.54705 12.613 6.58206 12.6392 6.61707ZM14.0309 4.58643C14.0484 4.58643 14.0572 4.57768 14.0747 4.57768C14.0747 4.17505 14.0747 3.76368 14.0747 3.36105C14.0747 3.25602 14.0397 3.19475 13.9259 3.19475C13.4795 3.19475 13.0331 3.19475 12.5955 3.19475C12.4992 3.19475 12.4467 3.23851 12.4467 3.33479C12.4467 3.74617 12.4467 4.15755 12.4467 4.56893C12.6042 4.29759 12.7355 4.02626 12.8668 3.75492C12.9456 3.58862 13.0419 3.43982 13.2432 3.43982C13.4445 3.43982 13.5583 3.56236 13.637 3.73742C13.7596 4.02626 13.8909 4.30635 14.0309 4.58643ZM21.8734 2.86214C21.7071 2.86214 21.5495 3.01969 21.5495 3.186C21.5495 3.3523 21.7071 3.50985 21.8734 3.50985C22.0397 3.50985 22.1972 3.3523 22.1972 3.186C22.1972 3.01094 22.0397 2.85339 21.8734 2.86214ZM17.8296 8.41138C18.0834 8.41138 18.276 8.41138 18.4686 8.41138C18.5911 8.41138 18.6699 8.32385 18.6786 8.22757C18.6874 8.12254 18.5648 8.13129 18.4948 8.12254C18.2322 8.08753 18.0309 8.17505 17.8296 8.41138Z" fill="black"/>
<path d="M16.2627 3.36106C16.2802 2.76587 16.4727 2.23196 16.8491 1.76806C16.9629 1.63677 16.9804 1.50548 16.9629 1.34793C16.9279 0.814014 17.1467 0.402635 17.6106 0.157559C18.057 -0.0787649 18.5121 -0.043754 18.9322 0.245086C19.4487 0.612701 19.5975 1.33918 19.2736 1.88185C18.941 2.44202 18.2408 2.65209 17.6543 2.372C17.383 2.24071 17.3918 2.24071 17.243 2.51204C17.0767 2.80964 17.0241 3.12474 16.9891 3.45734C16.9629 3.76369 16.8316 3.91248 16.5953 3.89498C16.3677 3.87747 16.2539 3.72867 16.2539 3.42233C16.2627 3.40482 16.2627 3.37857 16.2627 3.36106ZM18.2145 0.752745C17.9432 0.743992 17.7069 0.971563 17.7069 1.2429C17.6981 1.51423 17.9344 1.75056 18.2058 1.75056C18.4683 1.75056 18.6959 1.53174 18.7047 1.26916C18.7134 1.00657 18.4859 0.761498 18.2145 0.752745Z" fill="black"/>
<path d="M5.39209 6.50327C5.40084 5.92558 5.76846 5.45294 6.32863 5.30414C6.8713 5.15534 7.44898 5.40042 7.72907 5.89933C7.79909 6.02186 7.86911 6.09189 8.01791 6.11814C8.63935 6.24944 9.14701 6.57329 9.52338 7.0897C9.68093 7.31727 9.67218 7.53609 9.48837 7.66738C9.31332 7.79867 9.08574 7.75491 8.91944 7.53609C8.70062 7.24725 8.42929 7.04593 8.09668 6.91464C7.93914 6.85337 7.85161 6.87088 7.76408 7.04593C7.519 7.55359 7.0376 7.79867 6.46868 7.7374C5.98728 7.68488 5.55839 7.29976 5.43585 6.80086C5.4096 6.70458 5.4096 6.59955 5.39209 6.50327ZM7.14264 6.50327C7.14264 6.23193 6.89756 6.00436 6.63498 6.00436C6.3724 6.01311 6.15358 6.23193 6.14483 6.49451C6.14483 6.76585 6.3724 7.00217 6.64373 7.00217C6.91507 7.01092 7.15139 6.7746 7.14264 6.50327Z" fill="black"/>
<path d="M7.85996 3.34357C7.86871 3.08974 8.06127 2.75714 8.4639 2.57333C8.86653 2.38077 9.26915 2.42453 9.61051 2.71337C9.96062 3.00221 10.0657 3.37858 9.95187 3.81622C9.9081 3.96501 9.93436 4.07005 10.0219 4.19258C10.4595 4.82278 10.6958 5.51425 10.6871 6.28449C10.6871 6.53832 10.5558 6.69587 10.337 6.70462C10.1182 6.71337 9.96937 6.58208 9.95187 6.3195C9.91685 5.76808 9.78556 5.24291 9.49672 4.76151C9.40044 4.60396 9.31292 4.55145 9.1116 4.58646C8.42889 4.70024 7.85121 4.21009 7.85996 3.34357ZM9.24289 3.53613C9.24289 3.36983 9.08534 3.21228 8.9278 3.21228C8.76149 3.21228 8.60394 3.36983 8.60394 3.53613C8.60394 3.70243 8.76149 3.85998 8.91904 3.85998C9.08534 3.85998 9.24289 3.70243 9.24289 3.53613Z" fill="black"/>
<path d="M5.47064 4.07003C5.15554 4.05252 4.8667 4.11379 4.57786 4.20132C4.29778 4.2976 4.08771 4.21883 4.01769 4.00001C3.94767 3.78119 4.06145 3.59738 4.34154 3.49235C4.75292 3.34355 5.1818 3.27353 5.62819 3.29979C5.70697 3.30854 5.78574 3.31729 5.86451 3.3348C6.05707 3.38732 6.15335 3.52736 6.13585 3.72867C6.11834 3.92999 5.98705 4.03502 5.79449 4.06128C5.68071 4.07878 5.56692 4.07003 5.47064 4.07003Z" fill="black"/>
<path d="M7.88648 4.56018C7.88648 4.72648 7.82521 4.83152 7.70267 4.90154C7.57138 4.97156 7.43134 4.97156 7.3088 4.87528C7.15125 4.75274 7.00245 4.62145 6.87116 4.48141C6.73987 4.35012 6.73112 4.19257 6.81865 4.03502C6.90617 3.88622 7.05497 3.8162 7.21252 3.86872C7.51011 3.97375 7.72018 4.19257 7.87773 4.4639C7.88648 4.49891 7.88648 4.54268 7.88648 4.56018Z" fill="black"/>
<path d="M10.7309 12.2976C10.0044 12.2713 9.4705 11.9475 9.1379 11.2998C9.00661 11.0547 9.05912 10.8359 9.25168 10.7309C9.453 10.6258 9.64556 10.6958 9.79435 10.9409C10.0832 11.4311 10.4683 11.6236 10.976 11.5274C11.2998 11.4661 11.5274 11.2735 11.6849 10.9934C11.7375 10.8972 11.79 10.7921 11.8863 10.7396C12.0351 10.6608 12.1838 10.6608 12.3151 10.7746C12.4727 10.9059 12.4814 11.081 12.3939 11.256C12.0788 11.8862 11.5799 12.2451 10.8709 12.2976C10.8184 12.2976 10.7747 12.2976 10.7309 12.2976Z" fill="black"/>
</g>
<defs>
<filter id="filter0_d_0_107" x="0" y="0" width="28" height="29.0504" filterUnits="userSpaceOnUse" color-interpolation-filters="sRGB">
<feFlood flood-opacity="0" result="BackgroundImageFix"/>
<feColorMatrix in="SourceAlpha" type="matrix" values="0 0 0 0 0 0 0 0 0 0 0 0 0 0 0 0 0 0 127 0" result="hardAlpha"/>
<feOffset dy="4"/>
<feGaussianBlur stdDeviation="2"/>
<feComposite in2="hardAlpha" operator="out"/>
<feColorMatrix type="matrix" values="0 0 0 0 0 0 0 0 0 0 0 0 0 0 0 0 0 0 0.25 0"/>
<feBlend mode="normal" in2="BackgroundImageFix" result="effect1_dropShadow_0_107"/>
<feBlend mode="normal" in="SourceGraphic" in2="effect1_dropShadow_0_107" result="shape"/>
</filter>
<clipPath id="clip0_0_107">
<rect width="20" height="21.0503" fill="white" transform="translate(4)"/>
</clipPath>
</defs>
</svg>
