<svg width="28" height="25" viewBox="0 0 28 25" fill="none" xmlns="http://www.w3.org/2000/svg">
<g clip-path="url(#clip0_0_119)" filter="url(#filter0_d_0_119)">
<path d="M9.29448 15.8107C9.28668 15.9868 9.27888 16.1553 9.26329 16.3161C9.2243 16.6453 8.98258 16.8597 8.6473 16.8673C8.38219 16.875 8.11709 16.8673 7.85198 16.8673C7.43873 16.8673 7.18921 16.6376 7.15023 16.2318C7.13463 16.071 7.2126 15.8873 7.11124 15.7648C7.00988 15.6499 6.81494 15.7188 6.6668 15.6882C6.14438 15.5734 5.77791 15.1676 5.73112 14.6469C5.69993 14.2871 5.69993 14.2871 5.34126 14.2641C4.67069 14.2335 4.06251 13.6592 4.02352 13.0237C3.96894 12.2504 4.45237 11.6149 5.18531 11.4924C5.47381 11.4388 5.77011 11.4618 6.05861 11.4618C6.33931 11.4618 6.62001 11.4542 6.89292 11.4618C7.08785 11.4695 7.15023 11.4082 7.15023 11.2091C7.14243 10.1755 7.15023 9.14188 7.15023 8.10825C7.15023 7.67183 7.14243 7.22775 7.15023 6.79132C7.15023 6.61522 7.08785 6.56163 6.91631 6.56163C6.3783 6.56163 5.84028 6.5846 5.30227 6.53866C4.49136 6.47741 3.89876 5.73472 4.01572 4.95376C4.04691 4.76234 4.18726 4.64749 4.3588 4.66281C4.53034 4.68578 4.67069 4.83125 4.6395 5.01501C4.55373 5.49737 4.9358 5.94911 5.53619 5.94145C7.32956 5.92614 9.12294 5.94145 10.9163 5.93379C11.4777 5.93379 11.8286 5.56628 11.774 5.03032C11.735 4.65515 11.4231 4.38717 10.9787 4.35655C10.9085 4.34889 10.8383 4.35655 10.7682 4.35655C9.29448 4.35655 7.82079 4.35655 6.34711 4.35655C5.97284 4.35655 5.59077 4.33358 5.2165 4.38717C4.99818 4.4178 4.86563 4.31826 4.83444 4.14982C4.80325 3.96606 4.90461 3.84356 5.11514 3.78231C5.2243 3.75168 5.33346 3.74402 5.44262 3.75934C5.62976 3.77465 5.71553 3.72105 5.71553 3.52198C5.70773 3.26166 5.77011 3.01665 5.93385 2.80227C6.18336 2.47304 6.51865 2.30459 6.9397 2.31225C7.10344 2.31225 7.15802 2.25866 7.15023 2.09787C7.14243 1.96005 7.14243 1.81458 7.16582 1.67676C7.2282 1.36284 7.45432 1.16377 7.77401 1.15611C8.0703 1.14846 8.3744 1.14846 8.67069 1.15611C8.99038 1.16377 9.2243 1.37815 9.26329 1.68442C9.27888 1.80692 9.29448 1.93708 9.28668 2.06724C9.27108 2.251 9.34126 2.31225 9.52839 2.31225C10.1054 2.31225 10.5654 2.67977 10.6824 3.20807C10.7058 3.31526 10.7136 3.43776 10.7058 3.55261C10.698 3.7134 10.7526 3.77465 10.9163 3.75934C11.2594 3.73637 11.5713 3.82825 11.852 4.02732C12.3276 4.37186 12.5381 4.97673 12.3822 5.52034C12.2107 6.09458 11.7272 6.48506 11.1268 6.53866C10.6044 6.5846 10.0742 6.54631 9.55179 6.56163C9.31007 6.56928 9.29448 6.57694 9.29448 6.80664C9.29448 8.27669 9.29448 9.73909 9.28668 11.2091C9.28668 11.4082 9.34906 11.4618 9.54399 11.4618C10.1054 11.4618 10.659 11.4235 11.2204 11.4848C11.2828 11.4924 11.353 11.5001 11.4075 11.5307C11.6337 11.6609 11.8286 11.592 12.0313 11.4618C12.3354 11.2627 12.6629 11.079 12.9826 10.9029C13.1307 10.8187 13.1853 10.7191 13.1853 10.5507C13.1775 8.64421 13.1853 6.73773 13.1853 4.83125C13.1853 4.23404 13.3802 4.01966 13.9884 3.95075C14.4173 3.90481 14.737 3.56792 14.7526 3.13916C14.7604 2.97071 14.737 2.80993 14.7838 2.64148C14.8227 2.4807 14.9319 2.40413 15.0956 2.40413C15.2516 2.41179 15.3685 2.49601 15.3841 2.64148C15.4153 3.03197 15.4309 3.42245 15.2282 3.78231C14.9787 4.21873 14.6122 4.47905 14.1054 4.54796C13.8325 4.58624 13.8325 4.58624 13.8325 4.85422C13.8325 5.11454 13.8325 5.37487 13.8325 5.63519C13.8325 5.75004 13.8637 5.8266 13.9728 5.8802C15.4777 6.5846 16.9826 7.29666 18.4875 8.00106C18.581 8.047 18.659 8.03934 18.7448 7.9934C20.2574 7.28134 21.7623 6.56928 23.275 5.85723C23.3685 5.81129 23.3997 5.75769 23.3919 5.66581C23.3919 5.41315 23.3919 5.15283 23.3919 4.90016C23.3919 4.5939 23.3919 4.5939 23.0878 4.5403C22.542 4.45608 22.16 4.15748 21.9339 3.67511C21.8403 3.46839 21.8013 3.25401 21.8013 3.02431C21.8013 2.30459 21.8013 1.58488 21.8013 0.865167C21.8013 0.612501 21.7857 0.604844 21.5362 0.604844C21.3958 0.604844 21.2477 0.604844 21.1073 0.604844C20.8188 0.604844 20.8032 0.612501 20.8032 0.888136C20.8032 1.28628 20.8032 1.69207 20.8032 2.09021C20.7955 3.3076 19.8364 4.28764 18.5966 4.28764C17.4114 4.28764 16.5615 3.43776 16.4134 2.45007C16.3354 1.92177 16.39 1.39347 16.3744 0.865167C16.3666 0.604844 16.3666 0.597188 16.0937 0.597188C15.9222 0.597188 15.7428 0.597188 15.5713 0.597188C15.4387 0.597188 15.3841 0.65844 15.3841 0.780945C15.3841 1.0183 15.3841 1.25565 15.3841 1.48535C15.3841 1.70739 15.275 1.83755 15.0956 1.8452C14.9163 1.86052 14.776 1.73801 14.7604 1.52363C14.737 1.20205 14.7214 0.888136 14.776 0.566562C14.8305 0.214361 15.1034 -0.00767836 15.4621 -0.0153349C15.7272 -0.0229914 15.9923 -0.0153349 16.2574 -0.0153349C16.7175 -0.0153349 17.006 0.267957 17.0138 0.727349C17.0216 1.18674 17.0138 1.64613 17.0138 2.10553C17.0216 2.94774 17.6298 3.59855 18.4641 3.67511C19.2282 3.74402 19.9611 3.20807 20.1327 2.43476C20.1639 2.29694 20.1639 2.15912 20.1639 2.01365C20.1717 1.61551 20.1639 1.20971 20.1639 0.811571C20.1639 0.275613 20.4992 -0.0383045 20.9982 -2.18209e-05C21.2243 0.0152912 21.4504 -2.18209e-05 21.6765 -2.18209e-05C22.1366 -2.18209e-05 22.4329 0.28327 22.4329 0.742662C22.4407 1.48535 22.4329 2.23569 22.4329 2.97837C22.4329 3.58324 22.7214 3.8895 23.3452 3.94309C23.7194 3.97372 24.0001 4.25701 24.0001 4.62453C24.0001 7.24306 24.0001 9.85394 24.0001 12.4725C24.0001 13.1156 23.4387 13.6745 22.7838 13.6822C22.5966 13.6822 22.5576 13.7435 22.5576 13.9196C22.5654 14.4096 22.5654 14.8996 22.5576 15.3896C22.5498 15.9945 22.082 16.4768 21.466 16.4768C17.9027 16.4768 14.3315 16.4768 10.7682 16.4768C10.2535 16.4768 9.83249 16.2548 9.45822 15.9179C9.41923 15.8873 9.38025 15.849 9.34906 15.8107C9.33346 15.826 9.32566 15.826 9.29448 15.8107ZM23.3841 9.52471C23.3841 8.59061 23.3841 7.64886 23.3841 6.71476C23.3841 6.50803 23.3841 6.50038 23.1814 6.59225C21.7701 7.25837 20.3588 7.91683 18.9475 8.59061C18.6902 8.71311 18.4797 8.71311 18.2146 8.59061C16.811 7.91683 15.3919 7.25837 13.9884 6.5846C13.8403 6.51569 13.8013 6.531 13.8013 6.69945C13.8091 7.86324 13.8013 9.01938 13.8013 10.1832C13.8013 10.3899 13.8091 10.3976 13.9884 10.2904C14.2925 10.1143 14.6044 9.9305 14.9085 9.74675C15.1502 9.60127 15.3997 9.52471 15.6882 9.54002C15.8286 9.54768 15.9767 9.54768 16.1171 9.54002C16.6395 9.51705 16.9826 9.74675 17.1853 10.2291C17.5206 11.0254 18.4095 11.4465 19.2516 11.2245C19.8364 11.0713 20.2418 10.7038 20.4602 10.1525C20.5693 9.88456 20.7409 9.67018 21.0294 9.59362C21.9572 9.34861 22.581 10.0147 22.5576 10.6732C22.5342 11.4159 22.5576 12.1662 22.5498 12.9089C22.5498 13.0773 22.6044 13.1156 22.7682 13.085C23.1658 13.0084 23.3763 12.7558 23.3763 12.3193C23.3841 11.3852 23.3841 10.4588 23.3841 9.52471ZM17.0995 14.2105C17.1073 14.1186 17.045 14.0803 17.0138 14.0267C16.8344 13.7664 16.6395 13.5061 16.4602 13.2381C16.3666 13.1003 16.3744 12.9548 16.4992 12.8323C16.6005 12.7328 16.7331 12.7251 16.8578 12.7864C16.9436 12.8323 16.9904 12.9089 17.045 12.9778C17.3023 13.33 17.5518 13.6822 17.8013 14.0421C17.8793 14.1569 17.965 14.2028 18.1054 14.2028C19.314 14.1952 20.5225 14.1952 21.7311 14.2028C21.9027 14.2028 21.9494 14.1416 21.9494 13.9808C21.9416 12.9012 21.9494 11.8217 21.9494 10.7498C21.9494 10.6502 21.9416 10.543 21.9027 10.4511C21.8325 10.2674 21.6687 10.1679 21.427 10.1602C21.2555 10.1525 21.1307 10.1908 21.0606 10.3669C20.6707 11.2934 19.9611 11.837 18.9397 11.8829C17.8481 11.9289 17.0684 11.4159 16.6083 10.4435C16.5771 10.3822 16.5537 10.3286 16.5147 10.275C16.3978 10.1219 16.2185 10.1602 16.0625 10.1755C15.9222 10.1908 15.9689 10.321 15.9533 10.4052C15.93 10.6119 15.891 10.811 15.7584 10.9794C15.696 11.056 15.7194 11.1173 15.774 11.1862C15.9455 11.4159 16.1093 11.6532 16.273 11.8906C16.3978 12.082 16.3744 12.2581 16.2185 12.3653C16.0703 12.4648 15.8988 12.4342 15.7662 12.2504C15.6415 12.082 15.5245 11.9059 15.3997 11.7374C15.1502 11.3929 15.2594 11.4006 14.8617 11.6226C14.7526 11.6838 14.7526 11.7374 14.8227 11.8293C15.3608 12.5797 15.8988 13.33 16.429 14.088C16.468 14.1493 16.5147 14.2028 16.5927 14.2105C16.7565 14.2105 16.928 14.2105 17.0995 14.2105ZM15.7428 14.846C13.7467 14.846 11.7584 14.846 9.76231 14.846C9.5128 14.846 9.48941 14.8766 9.60637 15.0987C9.89487 15.6423 10.3549 15.8949 10.9631 15.8949C12.234 15.9026 13.5128 15.8949 14.7838 15.8949C16.9436 15.8949 19.1112 15.8949 21.2711 15.8949C21.7545 15.8949 21.9416 15.7112 21.9416 15.2288C21.9416 15.1829 21.9416 15.1369 21.9416 15.0987C21.9416 14.846 21.9416 14.846 21.6843 14.846C19.7038 14.846 17.7233 14.846 15.7428 14.846ZM10.8851 12.1279C10.8851 12.1203 10.8773 12.105 10.8773 12.0973C9.03717 12.0973 7.20481 12.0973 5.36465 12.105C5.10734 12.105 4.89681 12.2428 4.75646 12.4648C4.59272 12.7251 4.58492 13.0008 4.73307 13.2611C4.88902 13.5214 5.12294 13.6592 5.44262 13.6516C6.22235 13.6516 7.00208 13.6516 7.78181 13.6516C7.87537 13.6516 7.96894 13.6516 8.05471 13.6822C8.23405 13.7281 8.32761 13.9119 8.26524 14.0727C8.20286 14.2182 8.0859 14.2794 7.92995 14.2794C7.46212 14.2794 6.99428 14.2794 6.52644 14.2794C6.45627 14.2794 6.3705 14.2564 6.33931 14.3713C6.24574 14.7388 6.51865 15.091 6.90851 15.0987C7.5167 15.1063 8.13268 15.0987 8.74087 15.1063C8.87342 15.1063 8.91241 15.068 8.88122 14.9379C8.6551 13.9655 9.18531 13.1003 9.90266 12.7098C10.2379 12.5261 10.5576 12.3193 10.8851 12.1279ZM8.6473 9.01172C8.6473 8.26903 8.6473 7.51869 8.6473 6.77601C8.6473 6.63819 8.62391 6.55397 8.46017 6.56163C8.29643 6.56928 8.13268 6.56928 7.97674 6.56163C7.82079 6.55397 7.77401 6.61522 7.77401 6.76835C7.77401 8.26904 7.77401 9.76206 7.77401 11.2627C7.77401 11.4082 7.81299 11.4771 7.96894 11.4618C8.11709 11.4542 8.26524 11.4542 8.41338 11.4618C8.59272 11.4771 8.6473 11.4082 8.6473 11.2321C8.6473 10.4971 8.6473 9.7544 8.6473 9.01172ZM11.197 14.2182C11.7116 14.2182 12.2185 14.2182 12.7331 14.2182C12.7799 14.2182 12.8344 14.2335 12.8578 14.1952C12.8968 14.1416 12.8422 14.1033 12.811 14.065C12.6395 13.82 12.468 13.5903 12.3042 13.3453C12.234 13.2458 12.1639 13.2075 12.0313 13.2305C11.657 13.2994 11.3218 13.2075 11.0645 12.9166C10.9865 12.8323 10.9241 12.8247 10.8305 12.8859C10.5966 13.0314 10.3549 13.1692 10.1132 13.3147C9.84808 13.4755 9.66875 13.7052 9.55958 13.9808C9.46602 14.1952 9.48161 14.2182 9.71553 14.2182C10.2068 14.2182 10.698 14.2182 11.197 14.2182ZM8.20286 3.75934C8.76426 3.75934 9.33346 3.75168 9.89487 3.75934C10.0508 3.75934 10.0976 3.70574 10.0898 3.56027C10.082 3.15447 9.87147 2.94009 9.45822 2.93243C8.63171 2.93243 7.7974 2.93243 6.97089 2.93243C6.54984 2.93243 6.34711 3.14681 6.33931 3.55261C6.33931 3.72105 6.40169 3.75934 6.55763 3.75168C7.10344 3.75168 7.64925 3.75934 8.20286 3.75934ZM15.314 10.4435C15.3296 10.2444 15.2516 10.2827 15.1736 10.3286C14.9319 10.4741 14.6824 10.6196 14.4407 10.7651C13.5206 11.3087 12.6005 11.8446 11.6804 12.3883C11.6337 12.4189 11.5401 12.4265 11.5557 12.5108C11.5713 12.572 11.6493 12.595 11.7116 12.6179C11.8442 12.6639 11.9533 12.6179 12.0625 12.5567C13.0684 11.9671 14.082 11.3699 15.0878 10.7804C15.236 10.6808 15.2984 10.5507 15.314 10.4435ZM15.3608 14.2182C15.4309 14.2182 15.4699 14.2182 15.5089 14.2182C15.5635 14.2105 15.6415 14.2411 15.6726 14.1875C15.7038 14.1263 15.6337 14.088 15.6025 14.0421C15.1658 13.4295 14.7292 12.8247 14.3003 12.2045C14.2068 12.0667 14.1132 12.0437 13.9884 12.1432C13.9572 12.1662 13.9261 12.1892 13.8871 12.2045C13.7623 12.2581 13.7467 12.3193 13.8325 12.4342C14.2068 12.9548 14.581 13.4755 14.9475 14.0038C15.0567 14.1569 15.1814 14.2641 15.3608 14.2182ZM14.3237 14.2105C14.2847 14.1416 14.2691 14.111 14.2535 14.0803C13.965 13.6822 13.6843 13.2764 13.3958 12.8783C13.1853 12.5873 13.1853 12.5873 12.8734 12.7864C12.7721 12.8553 12.7721 12.9089 12.8344 13.0008C13.0995 13.3606 13.3569 13.7281 13.6142 14.0957C13.6687 14.1799 13.7389 14.2105 13.8403 14.2105C13.9884 14.2105 14.1366 14.2105 14.3237 14.2105ZM8.21066 2.30459C8.68629 2.30459 8.68629 2.30459 8.6473 1.92177C8.6395 1.82223 8.60052 1.78395 8.50695 1.78395C8.31202 1.78395 8.11709 1.78395 7.92216 1.78395C7.85198 1.78395 7.7974 1.79926 7.78181 1.88349C7.70383 2.20506 7.78181 2.30459 8.11709 2.30459C8.14828 2.30459 8.17947 2.30459 8.21066 2.30459ZM8.21066 16.2471C8.67849 16.2395 8.6395 16.3237 8.6473 15.8796C8.6473 15.7648 8.59272 15.7188 8.48356 15.7265C8.33541 15.7265 8.18726 15.7265 8.03911 15.7265C7.78181 15.7265 7.78181 15.7265 7.78181 15.9792C7.78181 16.2471 7.78181 16.2471 8.06251 16.2471C8.10929 16.2471 8.16387 16.2471 8.21066 16.2471Z" fill="black"/>
<path d="M18.7681 6.01802C18.7681 6.11756 18.7681 6.22475 18.7681 6.32429C18.7603 6.47742 18.7525 6.61523 18.9475 6.6918C19.0722 6.73774 19.1034 6.87556 19.0722 7.00572C19.041 7.13588 18.9475 7.2201 18.8071 7.22776C18.5654 7.23541 18.3237 7.23541 18.0898 7.22776C17.9416 7.2201 17.848 7.13588 17.8169 6.99806C17.7857 6.85259 17.8325 6.71477 17.9806 6.66883C18.121 6.62289 18.1287 6.53101 18.1287 6.41616C18.121 6.286 18.1287 6.14819 18.1287 6.01802C18.1365 5.84192 18.1521 5.68114 17.9182 5.61223C17.8091 5.57395 17.7623 5.44378 17.7857 5.32128C17.8169 5.18346 17.9026 5.09924 18.0508 5.07627C18.5108 4.99971 18.7681 5.21409 18.7681 5.66582C18.7681 5.77302 18.7681 5.89552 18.7681 6.01802Z" fill="black"/>
</g>
<defs>
<filter id="filter0_d_0_119" x="0" y="0" width="28" height="24.875" filterUnits="userSpaceOnUse" color-interpolation-filters="sRGB">
<feFlood flood-opacity="0" result="BackgroundImageFix"/>
<feColorMatrix in="SourceAlpha" type="matrix" values="0 0 0 0 0 0 0 0 0 0 0 0 0 0 0 0 0 0 127 0" result="hardAlpha"/>
<feOffset dy="4"/>
<feGaussianBlur stdDeviation="2"/>
<feComposite in2="hardAlpha" operator="out"/>
<feColorMatrix type="matrix" values="0 0 0 0 0 0 0 0 0 0 0 0 0 0 0 0 0 0 0.25 0"/>
<feBlend mode="normal" in2="BackgroundImageFix" result="effect1_dropShadow_0_119"/>
<feBlend mode="normal" in="SourceGraphic" in2="effect1_dropShadow_0_119" result="shape"/>
</filter>
<clipPath id="clip0_0_119">
<rect width="20" height="16.875" fill="white" transform="translate(4)"/>
</clipPath>
</defs>
</svg>
