<svg width="20" height="20" viewBox="0 0 20 20" fill="none" xmlns="http://www.w3.org/2000/svg">
<g clip-path="url(#clip0_0_126)">
<path d="M13.0472 8.85156C13.4847 8.45312 13.93 8.16406 14.4535 8C14.5316 7.97656 14.5394 7.91406 14.5394 7.85156C14.5394 6.45312 14.5394 5.05469 14.5394 3.65625C14.5394 3.5625 14.5082 3.49219 14.4535 3.42188C14.055 2.875 13.9144 2.27344 13.9847 1.60156C14.016 1.32812 13.9847 1.05469 13.9925 0.78125C14.0003 0.3125 14.2972 0.0078125 14.7582 0.0078125C15.266 0.0078125 15.7738 0.0078125 16.2816 0.0078125C16.7425 0.0078125 17.0472 0.296875 17.055 0.757812C17.0628 1.32031 17.055 1.875 17.055 2.4375C17.055 2.5625 17.016 2.67188 16.9457 2.76563C16.5628 3.28125 16.4691 3.85156 16.4925 4.49219C16.5316 5.57812 16.5082 6.66406 16.5003 7.75C16.5003 7.90625 16.5394 7.98438 16.6957 8.04688C18.3363 8.61719 19.305 10.3281 18.9613 12.0234C18.8988 12.3516 18.9535 12.6328 19.1488 12.9062C21.0394 15.5547 19.6175 19.2266 16.43 19.9062C14.1566 20.3984 11.8285 18.9766 11.2113 16.7188C11.141 16.4688 11.141 16.4688 10.9222 16.5859C10.0238 17.0547 8.96128 16.9453 8.18003 16.3047C7.41441 15.6797 7.08628 14.6328 7.36753 13.6797C7.64878 12.7188 8.47691 12.0078 9.47691 11.9062C10.3988 11.8047 11.1488 12.1406 11.7269 12.8516C11.8285 12.9766 11.8597 12.9531 11.9378 12.8437C12.1019 12.6094 12.1566 12.3594 12.0941 12.0859C11.9613 11.4531 11.9925 10.8281 12.1957 10.2188C12.2347 10.1016 12.2113 10.0469 12.1019 9.99219C8.82066 8.28125 5.32066 10.4844 4.83628 13.5781C4.40659 16.2969 6.21909 18.8203 8.92222 19.2812C9.71909 19.4219 10.5003 19.3594 11.2738 19.1094C11.305 19.1016 11.3363 19.0938 11.3675 19.0781C11.5941 19.0078 11.7582 19.0703 11.8207 19.25C11.8753 19.4141 11.7738 19.5703 11.555 19.6328C9.61753 20.2344 7.84409 19.9297 6.24253 18.6797C6.12534 18.5859 6.01597 18.3906 5.88316 18.4219C5.78159 18.4453 5.71909 18.6562 5.64878 18.7812C5.46128 19.0938 5.28159 19.4141 5.09409 19.7266C4.97691 19.9219 4.81284 19.9766 4.65659 19.8906C4.50034 19.8047 4.47691 19.6328 4.58628 19.4297C4.85191 18.9766 5.10972 18.5156 5.38316 18.0625C5.44566 17.9609 5.45347 17.8906 5.37534 17.7891C3.55503 15.4141 3.85191 12.2109 6.07066 10.1953C6.14097 10.1328 6.17222 10.0703 6.17222 9.97656C6.17222 9.33594 6.16441 8.6875 6.17222 8.04688C6.17222 7.92188 6.14097 7.86719 6.00816 7.88281C5.90659 7.89063 5.79722 7.89062 5.71128 7.8125C5.54722 7.66406 5.59409 7.39844 5.80503 7.32031C5.89097 7.28906 5.96909 7.29688 6.05503 7.29688C8.42222 7.29688 10.7972 7.29688 13.1644 7.29688C13.2113 7.29688 13.2582 7.29688 13.2972 7.29688C13.4847 7.3125 13.6175 7.44531 13.6097 7.60938C13.6019 7.77344 13.4769 7.875 13.2894 7.88281C13.0238 7.89844 13.0238 7.89844 13.0238 8.15625C13.0472 8.38281 13.0472 8.59375 13.0472 8.85156ZM14.5394 10.5312C14.5394 9.95312 14.5394 9.375 14.5394 8.79688C14.5394 8.57812 14.5394 8.57812 14.3363 8.67188C13.0863 9.23438 12.4066 10.5469 12.6722 11.9375C12.766 12.4219 12.6722 12.8438 12.3832 13.2422C11.7738 14.0859 11.5472 15.0312 11.68 16.0625C11.9769 18.2891 14.1957 19.8281 16.3753 19.3125C19.1253 18.6641 20.3128 15.5312 18.6722 13.2266C18.3832 12.8203 18.2972 12.3984 18.391 11.9141C18.6566 10.5391 17.9457 9.17969 16.6957 8.64844C16.5628 8.59375 16.5082 8.58594 16.5082 8.76562C16.516 9.9375 16.516 11.1094 16.5082 12.2812C16.5082 12.3906 16.5472 12.4609 16.6253 12.5312C17.0785 12.9219 17.2894 13.4297 17.2269 14.0234C17.1644 14.6094 16.8597 15.0469 16.3519 15.3359C16.18 15.4297 16.016 15.3828 15.93 15.2344C15.8519 15.0938 15.8988 14.9453 16.055 14.8359C16.0941 14.8047 16.141 14.7812 16.1878 14.75C16.5472 14.4922 16.7269 14.0234 16.6253 13.5938C16.5082 13.0859 16.0863 12.7422 15.5628 12.7109C15.0785 12.6875 14.6097 13.0078 14.4535 13.4844C14.2894 13.9688 14.4769 14.4922 14.9144 14.7812C14.9378 14.7969 14.9613 14.8047 14.9769 14.8203C15.141 14.9375 15.18 15.0938 15.0941 15.2422C15.0003 15.3828 14.8441 15.4141 14.6644 15.3203C13.641 14.7656 13.5082 13.3125 14.4144 12.5391C14.5003 12.4609 14.5394 12.3906 14.5394 12.2734C14.5394 11.6953 14.5394 11.1172 14.5394 10.5312ZM7.85191 14.5156C7.88316 15.1484 8.21909 15.7344 8.90659 16.0781C9.59409 16.4219 10.266 16.3516 10.8988 15.9062C11.016 15.8281 11.0628 15.7344 11.055 15.5859C11.0316 14.9297 11.1644 14.3047 11.43 13.7109C11.4769 13.6016 11.4613 13.5234 11.4066 13.4219C10.9691 12.6719 10.0785 12.3125 9.24253 12.5391C8.43003 12.7656 7.85191 13.5312 7.85191 14.5156ZM16.4691 1.57812C16.4691 1.32812 16.4691 1.07031 16.4691 0.820312C16.4691 0.65625 16.4066 0.585938 16.2347 0.59375C15.7582 0.601562 15.2816 0.601562 14.8128 0.59375C14.6332 0.59375 14.5707 0.671875 14.5785 0.84375C14.5863 1.32812 14.5785 1.82031 14.5785 2.30469C14.5785 2.38281 14.5941 2.45312 14.6332 2.52344C14.7425 2.71094 14.8441 2.89844 14.9457 3.08594C14.9925 3.17188 15.0472 3.20312 15.141 3.20312C15.391 3.19531 15.6488 3.19531 15.8988 3.20312C15.9925 3.20312 16.0472 3.17188 16.1019 3.09375C16.3753 2.6875 16.5472 2.25781 16.4691 1.75781C16.4613 1.69531 16.4691 1.63281 16.4691 1.57812ZM6.76597 8.78125C6.76597 9.03125 6.76597 9.27344 6.76597 9.52344C6.76597 9.63281 6.77378 9.6875 6.89878 9.60938C7.25816 9.38281 7.64097 9.21094 8.04722 9.08594C8.14097 9.05469 8.16441 9.00781 8.16441 8.91406C8.15659 8.625 8.15659 8.32812 8.16441 8.03906C8.16441 7.92969 8.13316 7.89062 8.02378 7.89062C7.65659 7.89844 7.28159 7.89844 6.91441 7.89062C6.80503 7.89062 6.76597 7.92969 6.76597 8.03906C6.77378 8.28906 6.76597 8.53906 6.76597 8.78125ZM12.4613 8.71094C12.4613 8.49219 12.4613 8.26562 12.4613 8.04688C12.4613 7.94531 12.4457 7.89062 12.3207 7.89844C11.93 7.90625 11.5394 7.90625 11.1488 7.89844C11.0472 7.89844 11.0082 7.92188 11.0082 8.03125C11.016 8.30469 11.0082 8.57812 11.0082 8.85156C11.0082 8.92188 11.016 8.96875 11.1019 8.99219C11.5316 9.09375 11.9457 9.25781 12.3363 9.46094C12.4457 9.52344 12.4535 9.46094 12.4535 9.375C12.4613 9.14844 12.4613 8.92969 12.4613 8.71094ZM9.58628 7.89844C9.35191 7.89844 9.11753 7.89844 8.88316 7.89844C8.78941 7.89844 8.74253 7.92188 8.74253 8.03125C8.75034 8.28125 8.75034 8.53906 8.74253 8.78906C8.74253 8.88281 8.76597 8.91406 8.86753 8.89062C9.34409 8.80469 9.82066 8.79688 10.305 8.85156C10.3988 8.85938 10.43 8.84375 10.43 8.74219C10.4222 8.50781 10.4222 8.27344 10.43 8.03906C10.43 7.92969 10.3988 7.89062 10.2816 7.89844C10.055 7.90625 9.82066 7.89844 9.58628 7.89844ZM15.9222 4.34375C15.9222 4.20312 15.9222 4.05469 15.9222 3.91406C15.9222 3.82031 15.891 3.77344 15.7894 3.77344C15.6175 3.78125 15.4378 3.78125 15.266 3.77344C15.1644 3.77344 15.1253 3.80469 15.1253 3.90625C15.1332 4.1875 15.1332 4.46094 15.1253 4.74219C15.1253 4.84375 15.1566 4.88281 15.2582 4.875C15.43 4.86719 15.6097 4.86719 15.7816 4.875C15.8988 4.88281 15.9222 4.82812 15.9222 4.72656C15.9144 4.60938 15.9222 4.47656 15.9222 4.34375ZM15.9222 10.3984C15.9222 10.3438 15.9222 10.2969 15.9222 10.2422C15.9222 9.89844 15.9535 9.9375 15.6253 9.9375C15.1332 9.9375 15.1332 9.9375 15.1332 10.4297C15.1332 10.8438 15.1332 10.8438 15.516 10.8438C15.9222 10.8438 15.9222 10.8438 15.9222 10.3984ZM15.9222 5.92188C15.9222 5.82813 15.9144 5.74219 15.9222 5.64844C15.9378 5.51563 15.891 5.46094 15.7503 5.46875C15.5863 5.47656 15.4222 5.47656 15.266 5.46875C15.1644 5.46875 15.1253 5.5 15.1332 5.60156C15.141 5.74219 15.1332 5.89062 15.1332 6.03125C15.1332 6.375 15.1332 6.375 15.4691 6.375C15.9222 6.375 15.9222 6.375 15.9222 5.92188ZM15.9222 7.42188C15.9222 7.36719 15.9222 7.32031 15.9222 7.26562C15.9144 6.90625 15.9535 6.96094 15.6097 6.96094C15.1332 6.96094 15.1332 6.96094 15.1332 7.44531C15.1332 7.85938 15.1332 7.85938 15.4925 7.85938C15.9222 7.85938 15.9222 7.85938 15.9222 7.42188ZM15.1253 8.89062C15.1253 9.34375 15.1253 9.34375 15.5863 9.34375C15.6488 9.34375 15.7191 9.33594 15.7816 9.34375C15.8832 9.35156 15.9222 9.3125 15.9222 9.21094C15.9144 9.07031 15.9222 8.92188 15.9222 8.78125C15.9144 8.38281 15.9691 8.44531 15.5785 8.44531C15.1253 8.44531 15.1253 8.44531 15.1253 8.89062ZM15.5238 11.4297C15.1253 11.4297 15.1253 11.4297 15.1253 11.8359C15.1253 11.8984 15.1332 11.9687 15.1253 12.0312C15.1175 12.1328 15.1566 12.1719 15.2582 12.1562C15.3832 12.1328 15.516 12.125 15.6488 12.1406C15.9144 12.1719 15.9144 12.1719 15.9144 11.8984C15.9144 11.8828 15.9144 11.8594 15.9144 11.8438C15.9222 11.4297 15.9222 11.4297 15.5238 11.4297Z" fill="black"/>
<path d="M2.99237 6.10154C2.99237 5.87498 2.98455 5.64842 2.99237 5.42186C3.00018 5.28904 2.93768 5.24998 2.82049 5.21873C2.11737 5.03123 1.41424 4.83592 0.71893 4.64061C0.211117 4.49217 -0.077945 4.03904 0.0236175 3.57029C0.132992 3.03904 0.62518 2.73436 1.15643 2.87498C2.56268 3.25779 3.96112 3.64842 5.35956 4.03904C5.61737 4.10936 5.87518 4.17967 6.12518 4.25779C6.62518 4.41404 6.89862 4.88279 6.76581 5.36717C6.62518 5.86717 6.14862 6.14061 5.64081 5.99998C5.01581 5.83592 4.39862 5.66404 3.78143 5.47654C3.60174 5.42186 3.56268 5.46092 3.57049 5.64061C3.58612 6.00779 3.57831 6.36717 3.57049 6.73436C3.57049 7.02342 3.47674 7.15623 3.28143 7.15623C3.07831 7.15623 2.98456 7.02342 2.98456 6.72654C2.99237 6.51561 2.99237 6.31248 2.99237 6.10154ZM0.961117 3.42967C0.75018 3.42186 0.632992 3.50779 0.59393 3.67186C0.554867 3.83592 0.632993 3.96092 0.789243 4.03123C0.820493 4.04686 0.867367 4.05467 0.898617 4.06248C2.48455 4.51561 4.07049 4.95311 5.64862 5.39061C5.96893 5.47654 6.14081 5.42186 6.20331 5.21873C6.26581 5.00779 6.14081 4.85936 5.82831 4.77342C4.37518 4.37498 2.92987 3.96873 1.47674 3.57029C1.29705 3.52342 1.10956 3.47654 0.961117 3.42967Z" fill="black"/>
<path d="M2.99219 13.9219C2.99219 12.0781 2.99219 10.2422 2.99219 8.39843C2.99219 8.08593 3.08594 7.93749 3.28906 7.9453C3.48437 7.95311 3.57812 8.08593 3.57812 8.39061C3.57812 12.0781 3.57812 15.7734 3.57812 19.4609C3.57812 19.7734 3.48438 19.9219 3.28125 19.9141C3.08594 19.9062 2.99219 19.7656 2.99219 19.4687C2.99219 17.625 2.99219 15.7734 2.99219 13.9219Z" fill="black"/>
<path d="M15.5081 17.4766C15.1019 17.4766 14.7035 17.4766 14.2972 17.4766C14.055 17.4766 13.9378 17.375 13.93 17.1953C13.9222 17.0078 14.055 16.8906 14.2972 16.8906C15.1019 16.8906 15.9066 16.8906 16.7113 16.8906C16.9456 16.8906 17.0706 17 17.0706 17.1875C17.0706 17.375 16.9535 17.4766 16.7113 17.4766C16.3206 17.4844 15.9144 17.4766 15.5081 17.4766Z" fill="black"/>
</g>
<defs>
<clipPath id="clip0_0_126">
<rect width="20" height="20" fill="white"/>
</clipPath>
</defs>
</svg>
