<svg width="20" height="20" viewBox="0 0 20 20" fill="none" xmlns="http://www.w3.org/2000/svg">
<g clip-path="url(#clip0_0_99)">
<path d="M9.99227 20C7.32664 20 4.66881 20 2.00318 20C0.997725 20 0.226096 19.3628 0.0390343 18.3831C-0.0233195 18.0327 6.31715e-05 17.6663 0.0234459 17.3079C0.0312401 17.1167 0.187125 17.053 0.358598 17.0371C0.802869 17.0052 0.802869 17.0052 0.802869 16.5353C0.802869 13.19 0.802869 9.84471 0.802869 6.49943C0.802869 5.94188 0.966548 5.47195 1.4342 5.13742C1.72259 4.93034 2.04995 4.86662 2.39289 4.88255C2.52539 4.88255 2.69687 4.92237 2.7904 4.85865C2.93069 4.77104 2.77481 4.61174 2.77481 4.47633C2.76702 3.91879 2.99305 3.52054 3.4685 3.25769C4.28689 2.82759 5.10529 2.38951 5.91588 1.94348C6.96031 1.37797 8.00474 0.812454 9.04917 0.246942C9.66491 -0.0875858 10.2962 -0.0875858 10.9198 0.231012C11.177 0.358452 11.4264 0.501821 11.6758 0.64519C11.8941 0.772629 11.9642 0.939893 11.8629 1.11512C11.7694 1.29035 11.5979 1.32221 11.3718 1.20274C11.138 1.0753 10.9042 0.947858 10.6626 0.820419C10.2183 0.58147 9.77403 0.58147 9.33755 0.820419C7.68518 1.72046 6.025 2.6205 4.36483 3.52054C4.19336 3.61612 4.02189 3.7117 3.85041 3.79931C3.601 3.92675 3.41394 4.08605 3.42173 4.39668C3.42173 4.70732 3.60879 4.85865 3.84262 4.98609C4.77793 5.48788 5.71323 5.99764 6.64854 6.5074C7.5215 6.97733 8.39445 7.44726 9.2674 7.92516C9.76624 8.19597 10.2573 8.20393 10.7483 7.92516C11.1146 7.71807 11.481 7.51894 11.8473 7.32779C11.9798 7.2561 12.0032 7.21628 11.8941 7.08884C11.2783 6.37996 10.6704 5.66311 10.0546 4.94626C9.96109 4.84272 9.87535 4.73918 9.78962 4.62767C9.64932 4.45244 9.65712 4.28517 9.79741 4.14977C9.93771 4.02233 10.1014 4.0303 10.2417 4.19756C10.5924 4.59581 10.9432 5.00202 11.2861 5.40823C11.6836 5.8702 12.0811 6.33217 12.4786 6.8021C12.5488 6.88971 12.6111 6.90564 12.7125 6.84989C13.8894 6.21269 15.0663 5.5755 16.2354 4.9383C16.4537 4.81883 16.5784 4.6436 16.5784 4.38075C16.5784 4.09402 16.4147 3.93472 16.1887 3.81524C15.0195 3.18601 13.8504 2.54881 12.6735 1.91958C12.6033 1.87976 12.5332 1.8479 12.4708 1.80807C12.2994 1.69656 12.2526 1.52133 12.3383 1.37C12.4241 1.2107 12.5955 1.16291 12.7748 1.25053C13.2425 1.49744 13.7023 1.75232 14.17 1.99923C14.9182 2.40544 15.6743 2.81962 16.4225 3.21787C17.0772 3.56833 17.2955 4.0064 17.163 4.74714C17.1396 4.86662 17.1786 4.89051 17.2799 4.89051C17.4903 4.89051 17.7086 4.87458 17.919 4.90644C18.6984 5.00998 19.1895 5.61532 19.1895 6.45961C19.1973 7.78975 19.1895 9.11194 19.1895 10.4421C19.1895 12.5369 19.1895 14.6396 19.1895 16.7344C19.1895 17.045 19.1895 17.045 19.4856 17.045C19.9065 17.045 19.9845 17.1247 19.9845 17.5548C19.9845 17.8256 20.0157 18.1044 19.9611 18.3672C19.7818 19.3469 19.0024 20 18.0047 20C16.0016 20.008 13.9907 20 11.9876 20C11.3329 20 10.6626 20 9.99227 20ZM15.1832 6.24455C15.191 6.26048 15.191 6.26845 15.1988 6.28438C15.9237 6.28438 16.6563 6.28438 17.3812 6.28438C17.7397 6.28438 17.8411 6.39589 17.8489 6.76227C17.8489 6.77024 17.8489 6.7782 17.8489 6.7782C17.8489 9.78099 17.8489 12.7758 17.8489 15.7786C17.8489 16.2007 17.7475 16.2963 17.3422 16.2963C13.3594 16.2963 9.37652 16.2963 5.40147 16.2963C5.33132 16.2963 5.26117 16.3043 5.19102 16.2884C5.02734 16.2645 4.91822 16.1609 4.91043 15.9857C4.90264 15.8184 4.99617 15.7149 5.15205 15.6671C5.25338 15.6352 5.3547 15.6432 5.46382 15.6432C9.29858 15.6432 13.1256 15.6432 16.9603 15.6432C17.2175 15.6432 17.2253 15.6432 17.2253 15.3804C17.2253 13.6997 17.2253 12.0191 17.2253 10.3465C17.2253 9.28716 17.2253 8.21986 17.2253 7.16052C17.2253 7.02512 17.2175 6.92954 17.046 6.9375C16.3056 6.94547 15.5651 6.94547 14.8247 6.9375C14.6922 6.9375 14.6376 6.98529 14.6454 7.1207C14.6532 7.44726 14.6532 7.77382 14.6454 8.09242C14.6065 9.19955 14.1076 10.0199 13.1567 10.5217C12.8995 10.6571 12.8294 10.8085 12.8528 11.0713C12.8605 11.1749 12.8995 11.2625 12.9463 11.3501C13.1178 11.6528 13.2892 11.9475 13.4529 12.2501C13.7413 12.7917 13.4841 13.4449 12.9151 13.6042C12.7826 13.644 12.6423 13.6201 12.5098 13.636C11.8005 13.7157 11.2393 12.9033 11.6758 12.1944C11.8473 11.9156 12.0032 11.6209 12.1591 11.3342C12.198 11.2625 12.237 11.1988 12.237 11.1111C12.2448 10.9598 12.2292 10.8961 12.0499 10.9439C11.3796 11.143 10.686 11.2306 9.99227 11.2226C8.99461 11.2147 8.02812 11.0235 7.1084 10.6253C6.19648 10.227 5.64309 9.52611 5.45603 8.53846C5.37029 8.07649 5.42485 7.59859 5.41705 7.12866C5.41705 6.98529 5.37029 6.92954 5.22999 6.92954C4.49733 6.9375 3.76468 6.9375 3.03202 6.92954C2.89172 6.92954 2.83716 6.96936 2.83716 7.1207C2.83716 9.8925 2.83716 12.6723 2.83716 15.4441C2.83716 15.5954 2.88393 15.6432 3.03202 15.6432C3.35158 15.6352 3.67115 15.6352 3.98292 15.6432C4.21674 15.6432 4.38042 15.7786 4.38042 15.9618C4.38042 16.1609 4.23233 16.2884 3.97512 16.2884C3.53085 16.2884 3.09437 16.2884 2.6501 16.2884C2.31495 16.2884 2.19804 16.1768 2.19804 15.8344C2.19804 12.7917 2.19804 9.7571 2.19804 6.71448C2.19804 6.38792 2.31495 6.26845 2.63451 6.26845C3.32041 6.26845 4.01409 6.26845 4.69999 6.26845C4.75454 6.26845 4.80131 6.26048 4.89484 6.25252C4.45836 6.01357 4.06086 5.79851 3.66335 5.58346C3.5932 5.54364 3.51526 5.52771 3.43732 5.52771C3.03202 5.52771 2.61893 5.52771 2.21362 5.52771C2.05774 5.52771 1.91744 5.58346 1.80053 5.67108C1.55112 5.86223 1.47317 6.13304 1.47317 6.43571C1.47317 9.86861 1.47317 13.3015 1.47317 16.7264C1.47317 17.0132 1.47317 17.0132 1.74597 17.0132C7.26429 17.0132 12.7904 17.0132 18.3087 17.0132C18.5971 17.0132 18.5971 17.0132 18.5971 16.7185C18.5971 13.3015 18.5971 9.88454 18.5971 6.46757C18.5971 6.41182 18.5971 6.3481 18.5971 6.29234C18.5737 5.94985 18.3711 5.62329 18.0515 5.56753C17.5293 5.47195 17.0071 5.51974 16.4771 5.54364C16.4615 5.54364 16.4537 5.5516 16.4381 5.55957C16.0016 5.79852 15.5885 6.02153 15.1832 6.24455ZM9.98447 19.3469C12.6501 19.3469 15.3235 19.3469 17.9892 19.3469C18.8231 19.3469 19.3609 18.7973 19.3843 17.9451C19.3921 17.7539 19.3376 17.6902 19.1505 17.6902C16.9915 17.6982 14.8247 17.6982 12.6657 17.6902C12.502 17.6902 12.4319 17.7459 12.3773 17.9052C12.1669 18.4787 11.6602 18.8371 11.0601 18.8451C10.3664 18.8531 9.6727 18.8531 8.97902 18.8451C8.37886 18.8371 7.86444 18.4787 7.66179 17.9052C7.59944 17.738 7.5137 17.6902 7.35002 17.6902C5.32352 17.6982 3.29702 17.6902 1.27052 17.6902C1.12243 17.6902 0.974342 17.6982 0.826252 17.6902C0.685956 17.6822 0.63919 17.7459 0.646984 17.8813C0.654779 18.0566 0.662573 18.2238 0.709338 18.3911C0.873017 18.9725 1.36405 19.3469 1.9798 19.3469C4.62984 19.3469 7.31105 19.3469 9.98447 19.3469ZM12.2136 9.04025C12.2136 8.70572 12.2058 8.37916 12.2136 8.04463C12.2136 7.90126 12.1824 7.8694 12.0499 7.94109C11.7226 8.12428 11.3796 8.29154 11.0523 8.4827C10.343 8.88892 9.64932 8.87299 8.94005 8.47474C8.02812 7.96498 7.1084 7.47912 6.18868 6.97733C6.05618 6.90564 5.99383 6.90564 6.00162 7.08884C6.00942 7.39947 6.00162 7.7101 6.00942 8.02074C6.0328 8.96857 6.54722 9.72524 7.41238 10.0677C8.07489 10.3306 8.76078 10.4899 9.47005 10.5536C10.343 10.6253 11.1926 10.5217 12.0266 10.2748C12.1747 10.235 12.2214 10.1553 12.2136 10.004C12.2058 9.69338 12.2136 9.36681 12.2136 9.04025ZM12.8216 8.74555C12.8216 9.09601 12.8294 9.44646 12.8216 9.79692C12.8216 9.94826 12.8528 9.97215 12.9853 9.88454C13.4607 9.5739 13.7803 9.15176 13.9284 8.59421C14.0609 8.07649 13.9985 7.53487 14.0063 7.00919C14.0063 6.86582 13.9128 6.92954 13.8582 6.9614C13.562 7.1207 13.2658 7.28796 12.9619 7.44726C12.8605 7.50302 12.8294 7.5747 12.8294 7.68621C12.8294 8.03667 12.8216 8.39509 12.8216 8.74555ZM10.0157 17.6982C9.48564 17.6982 8.95564 17.6982 8.41783 17.6982C8.37107 17.6982 8.30092 17.6743 8.26974 17.722C8.23077 17.7858 8.29313 17.8336 8.3321 17.8734C8.47239 18.0725 8.67504 18.184 8.90887 18.184C9.63373 18.192 10.3586 18.192 11.0835 18.184C11.3251 18.184 11.5199 18.0725 11.668 17.8734C11.6992 17.8256 11.7616 17.7778 11.7304 17.722C11.6992 17.6743 11.6369 17.6982 11.5823 17.6982C11.0679 17.6982 10.5379 17.6982 10.0157 17.6982ZM12.5176 11.9315C12.3851 12.1705 12.2682 12.3616 12.1591 12.5687C12.0577 12.7678 12.1591 12.959 12.3695 12.9988C12.463 13.0148 12.5644 13.0148 12.6579 12.9988C12.8683 12.967 12.9619 12.7758 12.8683 12.5847C12.7748 12.3776 12.6501 12.1705 12.5176 11.9315Z" fill="black"/>
<path d="M6.86695 14.9105C5.94723 14.9105 5.02751 14.9105 4.1 14.9105C4.01426 14.9105 3.92852 14.9184 3.85058 14.8866C3.71808 14.8308 3.64014 14.7352 3.64014 14.5839C3.64793 14.4326 3.71808 14.337 3.85838 14.2892C3.93632 14.2573 4.02205 14.2573 4.10779 14.2573C5.95502 14.2573 7.81005 14.2573 9.65728 14.2573C9.71184 14.2573 9.7742 14.2573 9.82876 14.2653C10.0002 14.2971 10.1171 14.4405 10.1093 14.5998C10.1016 14.7591 9.97685 14.8866 9.80538 14.9105C9.74302 14.9184 9.67287 14.9105 9.61052 14.9105C8.69859 14.9105 7.77887 14.9105 6.86695 14.9105Z" fill="black"/>
<path d="M5.89265 13.636C5.26132 13.636 4.63778 13.636 4.00645 13.636C3.88174 13.636 3.77262 13.6201 3.69468 13.5086C3.55438 13.3095 3.67909 13.0307 3.9363 13.0148C4.14674 12.9988 4.34939 13.0068 4.55984 13.0068C5.61206 13.0068 6.65648 13.0068 7.70871 13.0068C7.77106 13.0068 7.84121 13.0068 7.90356 13.0148C8.05945 13.0387 8.17636 13.1741 8.17636 13.3254C8.17636 13.4767 8.05945 13.6201 7.89577 13.6281C7.67753 13.636 7.4515 13.636 7.23326 13.636C6.78899 13.636 6.34471 13.636 5.89265 13.636Z" fill="black"/>
</g>
<defs>
<clipPath id="clip0_0_99">
<rect width="20" height="20" fill="white"/>
</clipPath>
</defs>
</svg>
