<svg width="20" height="17" viewBox="0 0 20 17" fill="none" xmlns="http://www.w3.org/2000/svg">
<g clip-path="url(#clip0_0_135)">
<path d="M18.9734 10.7935C18.9023 10.7462 18.8234 10.7698 18.7444 10.7698C17.1021 10.7698 15.4519 10.7698 13.8096 10.7698C13.4858 10.7698 13.3358 10.6672 13.3279 10.4619C13.32 10.2408 13.4779 10.1382 13.8175 10.1382C14.0385 10.1382 14.2675 10.1303 14.4886 10.1382C14.5912 10.1382 14.6386 10.1066 14.6702 10.004C14.8518 9.42756 14.9623 8.82749 14.9939 8.22741C14.9939 8.16424 15.0097 8.12476 14.9071 8.12476C13.9912 8.13266 13.0753 8.14055 12.1672 8.13266C12.033 8.13266 11.9856 8.17214 11.9856 8.30636C11.9225 10.4145 11.4093 12.4201 10.5565 14.3466C10.5407 14.3782 10.5328 14.4019 10.5249 14.4414C10.6118 14.4651 10.6749 14.4098 10.7381 14.3861C12.0725 13.786 13.1305 12.8701 13.9122 11.6384C14.0859 11.362 14.2438 11.291 14.4254 11.3936C14.6149 11.5042 14.6307 11.6937 14.4412 11.9779C12.7831 14.4572 10.4618 15.7284 7.47715 15.6179C3.79772 15.4836 0.765746 12.807 0.134084 9.1749C-0.284392 6.79827 0.307791 4.66641 1.83168 2.79511C1.91853 2.69247 2.01328 2.60561 2.1633 2.62141C2.41596 2.64509 2.5265 2.92934 2.36069 3.14253C2.13961 3.42677 1.91853 3.70313 1.73693 4.00317C-0.608119 7.74576 0.947348 12.6964 5.00578 14.4335C5.02946 14.4414 5.05315 14.4493 5.07684 14.4572C5.13211 14.4019 5.07684 14.3545 5.06105 14.3151C4.33464 12.6569 3.86089 10.9357 3.69508 9.13542C3.67139 8.85117 3.6477 8.57482 3.6477 8.29057C3.6477 8.16424 3.60033 8.14055 3.48979 8.14055C2.8976 8.14845 2.30542 8.14055 1.71324 8.14055C1.65007 8.14055 1.57901 8.14055 1.51584 8.13266C1.34214 8.10107 1.2316 7.96685 1.23949 7.80103C1.24739 7.63522 1.37372 7.50889 1.55532 7.50889C1.92642 7.501 2.30542 7.50889 2.67652 7.50889C2.94498 7.50889 3.21344 7.501 3.48189 7.50889C3.61612 7.51679 3.63981 7.46941 3.6477 7.34308C3.69508 5.82709 3.97143 4.35058 4.45307 2.91355C4.62678 2.38453 4.83207 1.86341 5.05315 1.35019C5.07684 1.29492 5.09263 1.24754 5.12421 1.16069C4.67415 1.33439 4.27937 1.55548 3.90037 1.80024C3.6635 1.95026 3.43452 2.12397 3.22133 2.30557C3.03183 2.46349 2.84233 2.45559 2.716 2.29768C2.60546 2.15555 2.64494 1.96606 2.81865 1.81604C4.2162 0.663253 5.81904 0.0473826 7.62717 7.92928e-06C11.1408 -0.0947414 14.3228 2.21083 15.3098 5.56653C15.7361 7.02725 15.7519 8.49586 15.3413 9.96448C15.3177 10.0434 15.2545 10.1382 15.4282 10.1382C16.5889 10.1303 17.7575 10.1382 18.9181 10.1303C18.9339 10.1303 18.9576 10.1224 19.005 10.1066C18.7286 9.86973 18.4602 9.64865 18.1996 9.42756C17.9864 9.24596 17.7732 9.07225 17.568 8.89065C17.3942 8.74063 17.3706 8.55113 17.4969 8.40901C17.6232 8.26689 17.7969 8.25899 17.9706 8.40901C18.5549 8.89855 19.1471 9.38019 19.7235 9.87762C20.0867 10.1856 20.0946 10.6909 19.7314 11.0067C19.1471 11.512 18.5549 12.0016 17.9627 12.4911C17.789 12.6332 17.6153 12.6254 17.489 12.4832C17.3627 12.3411 17.3942 12.1516 17.568 12.0016C17.9943 11.6384 18.4207 11.2831 18.855 10.9199C18.9023 10.8883 18.9576 10.8646 18.9734 10.7935ZM7.50874 4.05844C7.50874 2.97672 7.50874 1.90289 7.50874 0.821169C7.50874 0.679045 7.47715 0.623774 7.32714 0.639566C6.91655 0.679045 6.50597 0.734315 6.10329 0.83696C6.00854 0.860647 5.95327 0.900126 5.91379 0.98698C4.9584 2.99251 4.37411 5.09278 4.28726 7.31939C4.27937 7.46941 4.31884 7.50889 4.46886 7.50889C5.41636 7.501 6.36385 7.501 7.31134 7.50889C7.47715 7.50889 7.51663 7.46152 7.51663 7.2957C7.50874 6.22188 7.50874 5.14016 7.50874 4.05844ZM7.50874 11.5673C7.50874 10.5014 7.50084 9.43546 7.51663 8.36953C7.51663 8.18793 7.48505 8.12476 7.28766 8.12476C6.36385 8.13266 5.43215 8.13266 4.50834 8.12476C4.31884 8.12476 4.28726 8.18003 4.29516 8.35374C4.38991 10.5488 4.9663 12.6254 5.9059 14.6072C5.96117 14.7177 6.03223 14.773 6.15066 14.7967C6.53756 14.8756 6.92445 14.9388 7.31924 14.9783C7.47715 14.9941 7.52453 14.9546 7.51663 14.7967C7.50874 13.7308 7.50874 12.649 7.50874 11.5673ZM8.1404 4.06633C8.1404 5.14805 8.1404 6.23767 8.1404 7.31939C8.1404 7.46152 8.17198 7.50889 8.322 7.50889C9.27739 7.501 10.2249 7.501 11.1803 7.50889C11.3224 7.50889 11.3619 7.46941 11.354 7.32729C11.3382 6.83775 11.2908 6.35611 11.2276 5.87447C10.9987 4.16108 10.4697 2.54245 9.72745 0.979084C9.68797 0.892231 9.6327 0.852752 9.53795 0.829064C9.14316 0.734315 8.74048 0.679045 8.3299 0.639566C8.17198 0.623774 8.1325 0.671149 8.1325 0.829064C8.1404 1.91079 8.1404 2.98461 8.1404 4.06633ZM8.1404 11.5673C8.1404 12.649 8.1404 13.7387 8.1404 14.8204C8.1404 14.9072 8.10882 15.0099 8.26673 14.9941C8.6931 14.9625 9.11158 14.8993 9.53006 14.8046C9.61691 14.7809 9.68008 14.7414 9.71955 14.6546C10.6749 12.649 11.2671 10.5567 11.3461 8.33005C11.354 8.18793 11.3224 8.14055 11.1645 8.14055C10.217 8.14845 9.2695 8.14845 8.322 8.14055C8.16409 8.14055 8.12461 8.18003 8.12461 8.33795C8.1404 9.40388 8.1404 10.4856 8.1404 11.5673ZM10.5328 1.15279C10.5328 1.20017 10.5328 1.20806 10.5407 1.22385C11.4014 3.18201 11.9304 5.21122 11.9935 7.35887C12.0014 7.51679 12.0804 7.501 12.183 7.501C13.0753 7.501 13.9754 7.501 14.8676 7.501C14.986 7.501 15.0097 7.47731 15.0018 7.35887C14.9387 6.33242 14.6702 5.36124 14.1886 4.46112C13.3595 2.93724 12.1436 1.83972 10.5328 1.15279Z" fill="black"/>
<path d="M14.2914 14.2992C14.4177 14.2992 14.4888 14.2992 14.5598 14.2992C16.2179 14.2992 17.876 14.2992 19.5342 14.2992C19.5894 14.2992 19.6526 14.2913 19.7079 14.2992C19.8816 14.3229 19.9842 14.4256 19.9921 14.5993C20 14.7651 19.8895 14.8993 19.7158 14.923C19.6526 14.9309 19.5815 14.9309 19.5184 14.9309C17.8682 14.9309 16.2179 14.9309 14.5677 14.9309C14.4967 14.9309 14.4256 14.9309 14.3466 14.9309C14.3466 15.0178 14.4177 15.0335 14.4572 15.0651C14.8836 15.4283 15.3099 15.7836 15.7363 16.1468C15.9337 16.3127 15.9653 16.4864 15.8389 16.6364C15.7126 16.7943 15.5152 16.7864 15.3178 16.6206C14.7493 16.1468 14.1887 15.6731 13.6281 15.1994C13.2333 14.8677 13.2333 14.3545 13.6281 14.0229C14.1966 13.5412 14.7651 13.0675 15.3336 12.5937C15.5231 12.4358 15.7126 12.4358 15.8389 12.5859C15.9653 12.7438 15.9337 12.9096 15.7363 13.0754C15.2783 13.4781 14.8046 13.865 14.2914 14.2992Z" fill="black"/>
</g>
<defs>
<clipPath id="clip0_0_135">
<rect width="20" height="16.7548" fill="white"/>
</clipPath>
</defs>
</svg>
