<svg width="28" height="27" viewBox="0 0 28 27" fill="none" xmlns="http://www.w3.org/2000/svg">
<g clip-path="url(#clip0_0_75)" filter="url(#filter0_d_0_75)">
<path d="M13.9883 19C10.8538 19 7.74269 19 4.60819 19C4.53801 19 4.46784 19 4.39766 19C4.14035 19 4 18.8529 4 18.5832C4 18.3626 4 18.1665 4 17.9458C4 15.0774 4 12.209 4 9.34064C4 8.92387 4.11696 8.80129 4.51462 8.80129C5.82456 8.80129 7.1345 8.80129 8.44444 8.80129C8.72515 8.80129 8.72515 8.80129 8.72515 8.5071C8.72515 7.6 8.67836 7.7471 9.40351 7.30581C10.7602 6.49677 12.117 5.71226 13.4737 4.90323C13.5906 4.82968 13.6374 4.75613 13.6374 4.60903C13.6374 3.26065 13.6374 1.91226 13.6374 0.563871C13.6374 0.490323 13.6374 0.416774 13.6374 0.367742C13.6608 0.147097 13.8012 0 13.9883 0C14.1988 0 14.3392 0.147097 14.3392 0.367742C14.3626 0.784516 14.3626 0.784516 14.7602 0.784516C15.3684 0.784516 16 0.784516 16.6082 0.784516C17.0292 0.784516 17.1462 0.907097 17.1462 1.34839C17.1462 1.39742 17.1462 1.44645 17.1462 1.52C17.1462 1.64258 17.193 1.69161 17.3099 1.69161C17.6374 1.69161 17.9883 1.69161 18.3158 1.69161C18.6667 1.69161 18.8538 1.93677 18.7135 2.25548C18.4795 2.77032 18.4795 3.26065 18.7135 3.77548C18.8538 4.09419 18.6667 4.36387 18.3392 4.36387C17.4503 4.36387 16.5614 4.36387 15.6725 4.36387C15.3684 4.36387 15.2281 4.19226 15.2281 3.87355C15.2281 3.43226 15.2749 3.48129 14.8304 3.48129C14.3392 3.48129 14.3392 3.48129 14.3392 3.97161C14.3392 4.19226 14.3392 4.43742 14.3392 4.65806C14.3392 4.78065 14.386 4.85419 14.4795 4.92774C15.9532 5.78581 17.4035 6.66839 18.8772 7.50194C19.1345 7.64903 19.2515 7.84516 19.2281 8.13935C19.2281 8.28645 19.2281 8.43355 19.2281 8.55613C19.2047 8.72774 19.2749 8.80129 19.462 8.80129C19.9766 8.80129 20.4912 8.80129 21.0292 8.80129C21.8246 8.80129 22.6433 8.80129 23.4386 8.80129C23.8596 8.80129 23.9766 8.92387 23.9766 9.36516C23.9766 12.4052 23.9766 15.4206 23.9766 18.4606C23.9766 18.9019 23.883 19 23.4386 19C20.3041 19 17.1462 19 13.9883 19ZM9.45029 13.1897C9.45029 14.7832 9.45029 16.4013 9.45029 17.9948C9.45029 18.191 9.52047 18.24 9.68421 18.24C10.0819 18.2155 10.4795 18.2155 10.9006 18.24C11.0877 18.24 11.1345 18.191 11.1345 17.9948C11.1345 16.6465 11.1345 15.2981 11.1345 13.9497C11.1345 13.5329 11.2515 13.4103 11.6491 13.4103C13.2164 13.4103 14.7836 13.4103 16.3509 13.4103C16.7485 13.4103 16.8655 13.5084 16.8655 13.9497C16.8655 15.2981 16.8655 16.671 16.8655 18.0194C16.8655 18.191 16.9123 18.2645 17.076 18.2645C17.4737 18.2645 17.8947 18.24 18.2924 18.2645C18.5029 18.2645 18.5497 18.191 18.5497 17.9948C18.5263 14.8323 18.5731 11.6697 18.5263 8.5071C18.5263 8.26194 18.4327 8.11484 18.2456 7.99226C16.8889 7.20774 15.5322 6.39871 14.1754 5.61419C14.0351 5.54065 13.9415 5.54065 13.8246 5.61419C12.4444 6.44774 11.0643 7.25677 9.66082 8.06581C9.52047 8.16387 9.45029 8.26194 9.45029 8.43355C9.45029 10.0026 9.45029 11.5961 9.45029 13.1897ZM4.72515 13.9006C4.72515 15.249 4.72515 16.6219 4.72515 17.9703C4.72515 18.1665 4.77193 18.24 4.95906 18.24C6.12865 18.24 7.32164 18.24 8.49123 18.24C8.67836 18.24 8.72515 18.191 8.72515 17.9948C8.72515 15.2735 8.72515 12.5768 8.72515 9.85548C8.72515 9.65936 8.67836 9.58581 8.46784 9.58581C7.29825 9.58581 6.12865 9.58581 4.95906 9.58581C4.74854 9.58581 4.70175 9.65936 4.70175 9.85548C4.72515 11.2039 4.72515 12.5523 4.72515 13.9006ZM23.2749 13.9252C23.2749 12.5523 23.2749 11.2039 23.2749 9.83097C23.2749 9.63484 23.2281 9.56129 23.0409 9.56129C21.8713 9.56129 20.7018 9.56129 19.5322 9.56129C19.345 9.56129 19.2749 9.61032 19.2749 9.83097C19.2749 12.5523 19.2749 15.249 19.2749 17.9703C19.2749 18.1665 19.3216 18.24 19.5322 18.24C20.6784 18.24 21.848 18.24 22.9942 18.24C23.2749 18.24 23.2749 18.24 23.2749 17.9458C23.2749 16.5974 23.2749 15.249 23.2749 13.9252ZM11.8596 16.1806C11.8596 16.7935 11.8596 17.3819 11.8596 17.9948C11.8596 18.1665 11.883 18.24 12.0702 18.2155C12.5146 18.2155 12.9825 18.2155 13.4269 18.2155C13.5673 18.2155 13.6374 18.1665 13.6374 18.0194C13.6374 16.7935 13.6374 15.5923 13.6374 14.3665C13.6374 14.1948 13.5906 14.1458 13.4269 14.1458C12.9825 14.1458 12.538 14.1458 12.0936 14.1458C11.9064 14.1458 11.8363 14.1948 11.8363 14.391C11.883 15.0039 11.8596 15.5923 11.8596 16.1806ZM16.117 16.1806C16.117 15.5923 16.117 14.9794 16.117 14.391C16.117 14.2194 16.0702 14.1458 15.9064 14.1458C15.462 14.1458 15.0175 14.1458 14.5731 14.1458C14.4094 14.1458 14.3626 14.1948 14.3626 14.3665C14.3626 15.5677 14.3626 16.7935 14.3626 17.9948C14.3626 18.1665 14.4327 18.2155 14.5731 18.2155C15.0175 18.2155 15.462 18.2155 15.9064 18.2155C16.0702 18.2155 16.117 18.1665 16.117 17.9948C16.117 17.4065 16.117 16.7935 16.117 16.1806ZM15.3918 2.67226C15.6725 2.67226 15.9532 2.67226 16.2573 2.67226C16.3743 2.67226 16.4444 2.62323 16.4444 2.47613C16.4444 2.23097 16.4444 1.98581 16.4444 1.74065C16.4444 1.61806 16.3977 1.56903 16.2807 1.56903C15.6959 1.56903 15.1345 1.56903 14.5497 1.56903C14.4094 1.56903 14.3626 1.61806 14.3626 1.76516C14.3626 2.01032 14.3626 2.23097 14.3626 2.47613C14.3626 2.62323 14.4094 2.67226 14.5497 2.67226C14.8304 2.67226 15.1111 2.67226 15.3918 2.67226ZM16.9357 3.55484C16.9357 3.57936 16.9357 3.57936 16.9357 3.55484C17.1696 3.55484 17.4035 3.55484 17.6608 3.55484H17.6842C17.8947 3.55484 17.9181 3.53032 17.8246 3.33419C17.731 3.11355 17.731 2.91742 17.8012 2.69677C17.8947 2.47613 17.8713 2.45161 17.6374 2.45161C17.076 2.45161 17.1696 2.37806 17.1462 2.96645C17.1462 3.30968 17.0058 3.43226 16.6784 3.45677C16.4912 3.45677 16.3041 3.45677 16.117 3.45677C16.0702 3.45677 16 3.43226 16 3.50581C16 3.57936 16.0702 3.57936 16.117 3.57936C16.3977 3.57936 16.6784 3.55484 16.9357 3.55484Z" fill="black"/>
<path d="M12.5381 8.06578C12.5381 7.23223 13.2164 6.54578 14.0118 6.54578C14.8071 6.54578 15.4621 7.23223 15.4621 8.09029C15.4621 8.92384 14.8071 9.61029 14.0118 9.61029C13.1931 9.61029 12.5381 8.92384 12.5381 8.06578ZM14.0118 7.33029C13.5907 7.33029 13.2866 7.649 13.2866 8.09029C13.2866 8.50707 13.6141 8.82578 14.0118 8.82578C14.4094 8.82578 14.7369 8.50707 14.7369 8.09029C14.7135 7.649 14.4094 7.33029 14.0118 7.33029Z" fill="black"/>
<path d="M11.158 12.7729C11.0177 12.7729 10.8539 12.7729 10.7136 12.7729C10.6668 12.7729 10.62 12.7974 10.5732 12.7729C10.3393 12.6258 10.4796 12.4051 10.4562 12.209C10.4329 12.1109 10.4796 12.0129 10.5966 12.0129C10.9709 12.0129 11.3451 12.0129 11.7194 12.0129C11.813 12.0129 11.8831 12.0619 11.8831 12.1845V12.209C11.8831 12.9445 11.9533 12.7974 11.3685 12.7974C11.2984 12.7729 11.2282 12.7729 11.158 12.7729Z" fill="black"/>
<path d="M16.8186 12.7729C16.6315 12.7729 16.4443 12.7729 16.2806 12.7729C16.1636 12.7729 16.0934 12.7239 16.0934 12.6013C16.0934 11.8903 16.0233 12.0129 16.6081 11.9884C16.842 11.9884 17.0993 11.9884 17.3332 11.9884C17.4736 11.9884 17.5437 12.0374 17.5437 12.1845C17.5437 12.8955 17.5905 12.7484 17.0291 12.7729C16.9589 12.7729 16.8888 12.7729 16.8186 12.7729Z" fill="black"/>
<path d="M11.1578 11.0813C10.9707 11.0813 10.7835 11.0813 10.6198 11.0813C10.5028 11.0813 10.456 11.0322 10.456 10.9097C10.456 10.8851 10.456 10.8851 10.456 10.8606C10.456 10.1742 10.4092 10.2968 10.9707 10.2968C11.228 10.2968 11.4619 10.2968 11.7192 10.2968C11.8595 10.2968 11.9063 10.3458 11.9063 10.4929C11.9063 11.2039 11.9531 11.0813 11.3917 11.0813C11.2981 11.0813 11.228 11.0813 11.1578 11.0813Z" fill="black"/>
<path d="M16.7952 11.0813C16.6315 11.0813 16.4443 11.0813 16.2806 11.0813C16.1636 11.0813 16.0934 11.0322 16.0934 10.8851C16.0934 10.1742 16.0233 10.2968 16.6081 10.2968C16.842 10.2968 17.0993 10.2968 17.3332 10.2968C17.4736 10.2968 17.5203 10.3703 17.5203 10.4929C17.5203 11.1793 17.5671 11.0568 17.0057 11.0813C16.9356 11.0813 16.8654 11.0813 16.7952 11.0813Z" fill="black"/>
<path d="M13.9884 11.0813C13.8246 11.0813 13.6609 11.0813 13.4738 11.0813C13.3568 11.0813 13.2866 11.0323 13.2866 10.8852C13.2866 10.7381 13.2866 10.6155 13.2866 10.4684C13.2866 10.3213 13.3568 10.2723 13.4738 10.2723C13.8246 10.2723 14.1755 10.2723 14.5264 10.2723C14.6433 10.2723 14.7135 10.3213 14.7135 10.4684C14.7135 10.6155 14.7135 10.7381 14.7135 10.8852C14.7135 11.0323 14.6433 11.0813 14.5264 11.0813C14.3393 11.0813 14.1521 11.0813 13.9884 11.0813Z" fill="black"/>
<path d="M13.9884 12.7729C13.8247 12.7729 13.6609 12.7729 13.4738 12.7729C13.3334 12.7729 13.2633 12.7239 13.2867 12.5768C13.3101 11.8903 13.1931 12.0129 13.8247 11.9884C14.0586 11.9884 14.2925 11.9884 14.5264 11.9884C14.6668 11.9884 14.737 12.0374 14.7136 12.1845C14.6902 12.871 14.8071 12.7484 14.1755 12.7729C14.1054 12.7729 14.0586 12.7729 13.9884 12.7729Z" fill="black"/>
<path d="M7.20454 11.0568C7.20454 10.8607 7.20454 10.6645 7.20454 10.4929C7.20454 10.3703 7.25133 10.3213 7.36829 10.3213H7.39168C8.04665 10.3213 7.95308 10.2478 7.95308 10.8852C7.95308 11.1303 7.95308 11.4 7.95308 11.6452C7.95308 11.7678 7.9063 11.8413 7.76595 11.8168C7.6256 11.8168 7.50864 11.8168 7.36829 11.8168C7.22794 11.8168 7.18115 11.7678 7.18115 11.6207C7.20454 11.4245 7.20454 11.2284 7.20454 11.0568Z" fill="black"/>
<path d="M7.95313 13.9007C7.95313 14.0723 7.95313 14.2684 7.95313 14.44C7.95313 14.5871 7.90634 14.6361 7.76599 14.6361C7.11102 14.6361 7.22798 14.7097 7.20459 14.0968C7.20459 13.8516 7.20459 13.631 7.20459 13.3858C7.20459 13.1897 7.27477 13.1161 7.43851 13.1407C7.53208 13.1407 7.62564 13.1407 7.71921 13.1407C7.90634 13.1161 7.97652 13.2142 7.95313 13.4103C7.95313 13.5819 7.95313 13.729 7.95313 13.9007Z" fill="black"/>
<path d="M7.953 16.72C7.953 16.8916 7.953 17.0878 7.953 17.2594C7.953 17.382 7.90622 17.4555 7.76587 17.4555C7.08751 17.431 7.20447 17.5536 7.20447 16.8916C7.20447 16.6465 7.20447 16.4013 7.20447 16.1562C7.20447 16.0336 7.25125 15.96 7.36821 15.96C8.04657 15.96 7.92961 15.8865 7.953 16.4994C7.953 16.5975 7.953 16.671 7.953 16.72Z" fill="black"/>
<path d="M6.24561 11.0568C6.24561 11.2284 6.24561 11.4 6.24561 11.5961C6.24561 11.7432 6.19882 11.8168 6.03508 11.8168C5.4035 11.7923 5.52046 11.9148 5.49707 11.2774C5.49707 11.0323 5.49707 10.7871 5.49707 10.5174C5.49707 10.3703 5.54385 10.3213 5.6842 10.3213C6.36257 10.3213 6.22222 10.2477 6.24561 10.8607C6.24561 10.9097 6.24561 10.9832 6.24561 11.0568Z" fill="black"/>
<path d="M6.24547 13.9006C6.24547 14.0722 6.24547 14.2684 6.24547 14.44C6.24547 14.5626 6.19869 14.6361 6.05834 14.6361C5.37997 14.6361 5.52032 14.7097 5.52032 14.0968C5.52032 13.8516 5.52032 13.6064 5.52032 13.3613C5.52032 13.2142 5.56711 13.1406 5.70746 13.1406C6.33904 13.1651 6.22208 13.0426 6.24547 13.68C6.24547 13.7535 6.24547 13.8271 6.24547 13.9006Z" fill="black"/>
<path d="M6.24539 16.7445C6.24539 16.9406 6.24539 17.1368 6.24539 17.3084C6.24539 17.431 6.19861 17.48 6.08165 17.48C5.3799 17.48 5.52025 17.5781 5.52025 16.9406C5.52025 16.671 5.52025 16.4258 5.52025 16.1561C5.52025 16.0335 5.56703 15.9845 5.68399 15.9845H5.70738C6.36235 15.9845 6.24539 15.911 6.24539 16.4993C6.24539 16.5729 6.24539 16.6464 6.24539 16.7445Z" fill="black"/>
<path d="M20.7954 11.0568C20.7954 11.2284 20.7954 11.4245 20.7954 11.5962C20.7954 11.7187 20.7486 11.7923 20.6082 11.7678C20.4679 11.7678 20.3509 11.7678 20.2106 11.7678C20.0936 11.7678 20.0234 11.7187 20.0234 11.5962C20.0234 11.2039 20.0234 10.8362 20.0234 10.4439C20.0234 10.3213 20.0702 10.2723 20.1872 10.2723H20.2106C20.8889 10.2723 20.7486 10.1987 20.772 10.8116C20.7954 10.9097 20.7954 10.9833 20.7954 11.0568Z" fill="black"/>
<path d="M20.7953 13.8761C20.7953 14.0477 20.7953 14.2439 20.7953 14.4155C20.7953 14.5626 20.7485 14.6361 20.6082 14.6361C19.9766 14.6361 20.0468 14.7342 20.0468 14.0722C20.0468 13.8271 20.0468 13.5819 20.0468 13.3368C20.0468 13.2142 20.0935 13.1406 20.2339 13.1406C20.9123 13.1651 20.7953 13.0426 20.7953 13.7045C20.7953 13.778 20.7953 13.8271 20.7953 13.8761Z" fill="black"/>
<path d="M20.7954 16.7445C20.7954 16.9162 20.7954 17.1123 20.7954 17.2839C20.7954 17.4065 20.7486 17.48 20.6082 17.4555C20.4679 17.4555 20.3509 17.4555 20.2106 17.4555C20.0936 17.4555 20.0234 17.4065 20.0234 17.2839C20.0234 16.8916 20.0234 16.5239 20.0234 16.1316C20.0234 16.0091 20.0702 15.96 20.1872 15.96H20.2106C20.8889 15.96 20.7486 15.8865 20.772 16.4994C20.7954 16.5975 20.7954 16.671 20.7954 16.7445Z" fill="black"/>
<path d="M21.7545 11.0323C21.7545 10.8606 21.7545 10.689 21.7545 10.4929C21.7545 10.1987 21.9885 10.2968 22.1054 10.3213C22.2458 10.3213 22.4563 10.1987 22.4797 10.4929C22.4797 10.8852 22.4797 11.2529 22.4797 11.6452C22.4797 11.7677 22.4329 11.8168 22.3159 11.8168C21.6376 11.8168 21.7779 11.9148 21.7545 11.2774C21.7311 11.1794 21.7545 11.1058 21.7545 11.0323Z" fill="black"/>
<path d="M22.4795 13.9251C22.4795 14.0968 22.4795 14.2438 22.4795 14.4155C22.4795 14.4645 22.4795 14.5135 22.4795 14.538C22.3392 14.7587 22.1287 14.6116 21.9415 14.6361C21.848 14.6606 21.7544 14.6361 21.7544 14.489C21.7544 14.0968 21.7544 13.68 21.7544 13.2877C21.7544 13.1897 21.8012 13.1406 21.8947 13.1406H21.9181C22.5965 13.1406 22.4561 13.0426 22.4795 13.68C22.4795 13.778 22.4795 13.8516 22.4795 13.9251Z" fill="black"/>
<path d="M22.4795 16.7445C22.4795 16.9161 22.4795 17.1123 22.4795 17.2839C22.4795 17.4065 22.4328 17.48 22.3158 17.48C21.6374 17.4555 21.7778 17.5781 21.7544 16.9407C21.7544 16.6955 21.7544 16.4503 21.7544 16.1807C21.7544 16.0581 21.8012 16.009 21.9181 15.9845C22.4795 15.9355 22.4795 15.9355 22.4795 16.5239C22.4795 16.5974 22.4795 16.671 22.4795 16.7445Z" fill="black"/>
</g>
<defs>
<filter id="filter0_d_0_75" x="0" y="0" width="28" height="27" filterUnits="userSpaceOnUse" color-interpolation-filters="sRGB">
<feFlood flood-opacity="0" result="BackgroundImageFix"/>
<feColorMatrix in="SourceAlpha" type="matrix" values="0 0 0 0 0 0 0 0 0 0 0 0 0 0 0 0 0 0 127 0" result="hardAlpha"/>
<feOffset dy="4"/>
<feGaussianBlur stdDeviation="2"/>
<feComposite in2="hardAlpha" operator="out"/>
<feColorMatrix type="matrix" values="0 0 0 0 0 0 0 0 0 0 0 0 0 0 0 0 0 0 0.25 0"/>
<feBlend mode="normal" in2="BackgroundImageFix" result="effect1_dropShadow_0_75"/>
<feBlend mode="normal" in="SourceGraphic" in2="effect1_dropShadow_0_75" result="shape"/>
</filter>
<clipPath id="clip0_0_75">
<rect width="20" height="19" fill="white" transform="translate(4)"/>
</clipPath>
</defs>
</svg>
